<svg clip-rule="evenodd" fill-rule="evenodd" height="512" image-rendering="optimizeQuality" shape-rendering="geometricPrecision" text-rendering="geometricPrecision" viewBox="0 0 2.53988 2.53988" width="512" xmlns="http://www.w3.org/2000/svg"><g id="图层_x0020_1"><circle fill="#ff1f1f" r="2.17" transform="matrix(.414 -.414 .414 .414 1.27 1.27)"/><g fill="#fff"><path d="m1.16935 1.61.44065-.44065.34759-.3476c.06586-.06586.06586-.1736 0-.23946-.06586-.06586-.1736-.06586-.23946 0l-.3476.34759-.44065.44065-.34759.3476c-.06586.06586-.06586.1736 0 .23946.06586.06586.1736.06586.23946 0z"/><path d="m1.61 1.37053-.44065-.44065-.3476-.34759c-.06586-.06586-.1736-.06586-.23946 0-.06586.06586-.06586.1736 0 .23946l.34759.3476.44065.44065.3476.34759c.06586.06586.1736.06586.23946 0 .06586-.06586.06586-.1736 0-.23946z"/></g></g></svg>